<?xml version="1.0" encoding="UTF-8"?>
<?xml-stylesheet href="https://assets.antv.antgroup.com/AlibabaPuHuiTi-Regular/result.css" type="text/css"?>
<?xml-stylesheet href="https://assets.antv.antgroup.com/AlibabaPuHuiTi-Bold/result.css" type="text/css"?>
<svg style="" height="467" width="426" font-family="Alibaba PuHuiTi" xmlns="http://www.w3.org/2000/svg" viewBox="-20 -20 426 467"><defs /><defs><linearGradient id="edge-gradient-1783FF-00C9C9" gradientUnits="userSpaceOnUse" x1="42" y1="54" x2="42" y2="124"><stop offset="0%" stop-color="#1783FF" /><stop offset="100%" stop-color="#00C9C9" /></linearGradient><linearGradient id="edge-gradient-00C9C9-F0884D" gradientUnits="userSpaceOnUse" x1="42" y1="148" x2="42" y2="218"><stop offset="0%" stop-color="#00C9C9" /><stop offset="100%" stop-color="#F0884D" /></linearGradient><linearGradient id="edge-gradient-F0884D-D580FF" gradientUnits="userSpaceOnUse" x1="42" y1="242" x2="42" y2="312"><stop offset="0%" stop-color="#F0884D" /><stop offset="100%" stop-color="#D580FF" /></linearGradient></defs><g id="infographic-container"><g><g transform="translate(28, 0)"><foreignObject height="35" width="330" y="0" x="0" overflow="visible"><span style="overflow:visible;color:#262626;font-size:24px;line-height:1.4;width:100%;height:100%;display:flex;flex-wrap:wrap;word-break:break-word;white-space:pre-wrap;text-align:center;justify-content:center;align-content:flex-start;align-items:flex-start" xmlns="http://www.w3.org/1999/xhtml">AntV Native Animation Proof</span></foreignObject></g><g transform="translate(0, 43)"><foreignObject height="48" width="386" y="0" x="0" overflow="visible"><span style="overflow:visible;color:#5a5a5a;font-size:16px;line-height:1.4;width:100%;height:100%;display:flex;flex-wrap:wrap;word-break:break-word;white-space:pre-wrap;text-align:center;justify-content:center;align-content:flex-start;align-items:flex-start" xmlns="http://www.w3.org/1999/xhtml">Verify built-in SVG animation and semantic output</span></foreignObject></g></g><g transform="translate(166, 91)"><g><path d="M 42 54 L 42 89 L 42 89 L 42 124" stroke="url(#edge-gradient-1783FF-00C9C9)" stroke-width="2" stroke-dasharray="8,4" fill="none"><animate attributeName="stroke-dashoffset" from="12" to="0" dur="1.2s" repeatCount="indefinite" /></path><polygon fill="#00C9C9" stroke="#00C9C9" stroke-width="1.6" points="42,124 36.5,114 47.5,114" /><path d="M 42 148 L 42 183 L 42 183 L 42 218" stroke="url(#edge-gradient-00C9C9-F0884D)" stroke-width="2" stroke-dasharray="8,4" fill="none"><animate attributeName="stroke-dashoffset" from="12" to="0" dur="1.2s" repeatCount="indefinite" /></path><polygon fill="#F0884D" stroke="#F0884D" stroke-width="1.6" points="42,218 36.5,208 47.5,208" /><path d="M 42 242 L 42 277 L 42 277 L 42 312" stroke="url(#edge-gradient-F0884D-D580FF)" stroke-width="2" stroke-dasharray="8,4" fill="none"><animate attributeName="stroke-dashoffset" from="12" to="0" dur="1.2s" repeatCount="indefinite" /></path><polygon fill="#D580FF" stroke="#D580FF" stroke-width="1.6" points="42,312 36.5,302 47.5,302" /></g><g><g transform="translate(30, 30)"><rect width="24" height="24" fill="none" visibility="hidden" /><ellipse x="1" y="1" width="22" height="22" fill="#1783ff" stroke="#000" stroke-width="2" cx="12" cy="12" rx="11" ry="11"><title>Research</title></ellipse></g><g transform="translate(30, 124)"><rect width="24" height="24" fill="none" visibility="hidden" /><ellipse x="1" y="1" width="22" height="22" fill="#00c9c9" stroke="#000" stroke-width="2" cx="12" cy="12" rx="11" ry="11"><title>Structure</title></ellipse></g><g transform="translate(30, 218)"><rect width="24" height="24" fill="none" visibility="hidden" /><ellipse x="1" y="1" width="22" height="22" fill="#f0884d" stroke="#000" stroke-width="2" cx="12" cy="12" rx="11" ry="11"><title>Animate</title></ellipse></g><g transform="translate(30, 312)"><rect width="24" height="24" fill="none" visibility="hidden" /><ellipse x="1" y="1" width="22" height="22" fill="#d580ff" stroke="#000" stroke-width="2" cx="12" cy="12" rx="11" ry="11"><title>Export</title></ellipse></g></g></g></g></svg>