<?xml version="1.0" encoding="UTF-8"?>
<?xml-stylesheet href="https://assets.antv.antgroup.com/AlibabaPuHuiTi-Regular/result.css" type="text/css"?>
<?xml-stylesheet href="https://assets.antv.antgroup.com/AlibabaPuHuiTi-Bold/result.css" type="text/css"?>
<svg style="" height="711" width="1584" font-family="Alibaba PuHuiTi" xmlns="http://www.w3.org/2000/svg" viewBox="-20 -20 1584 711"><defs /><defs><mask id="lifeline-mask-ieqv57y-0" maskUnits="userSpaceOnUse" x="0" y="0" width="1544" height="580"><rect x="0" y="0" width="1544" height="580" fill="white" /><rect x="133" y="118" width="180" height="64" fill="black" /><rect x="133" y="418" width="180" height="64" fill="black" /></mask><mask id="lifeline-mask-ieqv57y-1" maskUnits="userSpaceOnUse" x="0" y="0" width="1544" height="580"><rect x="0" y="0" width="1544" height="580" fill="white" /><rect x="499" y="118" width="180" height="64" fill="black" /><rect x="499" y="318" width="180" height="64" fill="black" /></mask><mask id="lifeline-mask-ieqv57y-2" maskUnits="userSpaceOnUse" x="0" y="0" width="1544" height="580"><rect x="0" y="0" width="1544" height="580" fill="white" /><rect x="865" y="218" width="180" height="64" fill="black" /><rect x="865" y="318" width="180" height="64" fill="black" /></mask><mask id="lifeline-mask-ieqv57y-3" maskUnits="userSpaceOnUse" x="0" y="0" width="1544" height="580"><rect x="0" y="0" width="1544" height="580" fill="white" /><rect x="1231" y="218" width="180" height="64" fill="black" /></mask><mask id="edge-mask-ieqv57y-0" maskUnits="userSpaceOnUse" x="0" y="0" width="1544" height="580"><rect x="0" y="0" width="1544" height="580" fill="white" /><rect x="378.5" y="130" width="55" height="20" fill="black" /></mask><linearGradient id="arrow-gradient-ieqv57y-0" gradientUnits="userSpaceOnUse" x1="313" y1="150" x2="499" y2="150"><stop offset="0%" stop-color="#1783FF" /><stop offset="100%" stop-color="#00C9C9" /></linearGradient><mask id="edge-mask-ieqv57y-1" maskUnits="userSpaceOnUse" x="0" y="0" width="1544" height="580"><rect x="0" y="0" width="1544" height="580" fill="white" /><rect x="746.5" y="180" width="51" height="20" fill="black" /></mask><linearGradient id="arrow-gradient-ieqv57y-1" gradientUnits="userSpaceOnUse" x1="679" y1="165" x2="865" y2="235"><stop offset="0%" stop-color="#00C9C9" /><stop offset="100%" stop-color="#F0884D" /></linearGradient><mask id="edge-mask-ieqv57y-2" maskUnits="userSpaceOnUse" x="0" y="0" width="1544" height="580"><rect x="0" y="0" width="1544" height="580" fill="white" /><rect x="1117.5" y="230" width="41" height="20" fill="black" /></mask><linearGradient id="arrow-gradient-ieqv57y-2" gradientUnits="userSpaceOnUse" x1="1045" y1="250" x2="1231" y2="250"><stop offset="0%" stop-color="#F0884D" /><stop offset="100%" stop-color="#D580FF" /></linearGradient><mask id="edge-mask-ieqv57y-3" maskUnits="userSpaceOnUse" x="0" y="0" width="1544" height="580"><rect x="0" y="0" width="1544" height="580" fill="white" /><rect x="1122" y="280" width="32" height="20" fill="black" /></mask><linearGradient id="arrow-gradient-ieqv57y-3" gradientUnits="userSpaceOnUse" x1="1231" y1="265" x2="1045" y2="335"><stop offset="0%" stop-color="#D580FF" /><stop offset="100%" stop-color="#F0884D" /></linearGradient><mask id="edge-mask-ieqv57y-4" maskUnits="userSpaceOnUse" x="0" y="0" width="1544" height="580"><rect x="0" y="0" width="1544" height="580" fill="white" /><rect x="739" y="330" width="66" height="20" fill="black" /></mask><linearGradient id="arrow-gradient-ieqv57y-4" gradientUnits="userSpaceOnUse" x1="865" y1="350" x2="679" y2="350"><stop offset="0%" stop-color="#F0884D" /><stop offset="100%" stop-color="#00C9C9" /></linearGradient><mask id="edge-mask-ieqv57y-5" maskUnits="userSpaceOnUse" x="0" y="0" width="1544" height="580"><rect x="0" y="0" width="1544" height="580" fill="white" /><rect x="373.5" y="387.5" width="65" height="20" fill="black" /></mask><linearGradient id="arrow-gradient-ieqv57y-5" gradientUnits="userSpaceOnUse" x1="499" y1="365" x2="313" y2="450"><stop offset="0%" stop-color="#00C9C9" /><stop offset="100%" stop-color="#1783FF" /></linearGradient><filter id="compact-shadow"><feDropShadow dx="0" dy="2" stdDeviation="2" flood-opacity="0.15" /></filter></defs><g id="infographic-container"><g transform="translate(569, 0)"><g transform="translate(17.5, 0)"><foreignObject height="35" width="371" y="0" x="0" overflow="visible"><span style="overflow:visible;color:#262626;font-size:24px;line-height:1.4;width:100%;height:100%;display:flex;flex-wrap:wrap;word-break:break-word;white-space:pre-wrap;text-align:center;justify-content:center;align-content:flex-start;align-items:flex-start" xmlns="http://www.w3.org/1999/xhtml">Sequence Interaction Animation</span></foreignObject></g><g transform="translate(0, 43)"><foreignObject height="48" width="406" y="0" x="0" overflow="visible"><span style="overflow:visible;color:#5a5a5a;font-size:16px;line-height:1.4;width:100%;height:100%;display:flex;flex-wrap:wrap;word-break:break-word;white-space:pre-wrap;text-align:center;justify-content:center;align-content:flex-start;align-items:flex-start" xmlns="http://www.w3.org/1999/xhtml">Deterministic AntV and Remotion compatibility proof</span></foreignObject></g></g><g transform="translate(0, 91)"><rect x="0" y="0" width="1544" height="580" fill="none" /><g><g transform="translate(133, 40)"><rect x="0" y="0" width="180" height="60" fill="#ffffff" stroke="#ffffff" stroke-width="1" rx="6" ry="6" filter="url(#compact-shadow)" /><rect x="0" y="0" width="3" height="60" fill="#1783ff" rx="1.5" ry="1.5" /><g transform="translate(36, 8)"><g transform="translate(0, 13.5)"><g><foreignObject height="17" width="136" y="0" x="0" overflow="visible"><span style="overflow:visible;color:#262626;font-weight:bold;font-size:12px;line-height:1.4;width:100%;height:100%;display:flex;flex-wrap:wrap;word-break:break-word;white-space:pre-wrap;text-align:left;justify-content:flex-start;align-content:flex-start;align-items:flex-start" xmlns="http://www.w3.org/1999/xhtml">Customer</span></foreignObject></g></g></g></g><g transform="translate(499, 40)"><rect x="0" y="0" width="180" height="60" fill="#ffffff" stroke="#ffffff" stroke-width="1" rx="6" ry="6" filter="url(#compact-shadow)" /><rect x="0" y="0" width="3" height="60" fill="#00c9c9" rx="1.5" ry="1.5" /><g transform="translate(36, 8)"><g transform="translate(0, 13.5)"><g><foreignObject height="17" width="136" y="0" x="0" overflow="visible"><span style="overflow:visible;color:#262626;font-weight:bold;font-size:12px;line-height:1.4;width:100%;height:100%;display:flex;flex-wrap:wrap;word-break:break-word;white-space:pre-wrap;text-align:left;justify-content:flex-start;align-content:flex-start;align-items:flex-start" xmlns="http://www.w3.org/1999/xhtml">Website</span></foreignObject></g></g></g></g><g transform="translate(865, 40)"><rect x="0" y="0" width="180" height="60" fill="#ffffff" stroke="#ffffff" stroke-width="1" rx="6" ry="6" filter="url(#compact-shadow)" /><rect x="0" y="0" width="3" height="60" fill="#f0884d" rx="1.5" ry="1.5" /><g transform="translate(36, 8)"><g transform="translate(0, 13.5)"><g><foreignObject height="17" width="136" y="0" x="0" overflow="visible"><span style="overflow:visible;color:#262626;font-weight:bold;font-size:12px;line-height:1.4;width:100%;height:100%;display:flex;flex-wrap:wrap;word-break:break-word;white-space:pre-wrap;text-align:left;justify-content:flex-start;align-content:flex-start;align-items:flex-start" xmlns="http://www.w3.org/1999/xhtml">Server</span></foreignObject></g></g></g></g><g transform="translate(1231, 40)"><rect x="0" y="0" width="180" height="60" fill="#ffffff" stroke="#ffffff" stroke-width="1" rx="6" ry="6" filter="url(#compact-shadow)" /><rect x="0" y="0" width="3" height="60" fill="#d580ff" rx="1.5" ry="1.5" /><g transform="translate(36, 8)"><g transform="translate(0, 13.5)"><g><foreignObject height="17" width="136" y="0" x="0" overflow="visible"><span style="overflow:visible;color:#262626;font-weight:bold;font-size:12px;line-height:1.4;width:100%;height:100%;display:flex;flex-wrap:wrap;word-break:break-word;white-space:pre-wrap;text-align:left;justify-content:flex-start;align-content:flex-start;align-items:flex-start" xmlns="http://www.w3.org/1999/xhtml">Database</span></foreignObject></g></g></g></g><path d="M 223 100 L 223 540" stroke="#5a5a5a" stroke-width="2" stroke-dasharray="5,5" fill="none" mask="url(#lifeline-mask-ieqv57y-0)" /><polygon fill="#5a5a5a" stroke="#5a5a5a" stroke-width="1" points="223,540 217.5,530 228.5,530" /><path d="M 589 100 L 589 540" stroke="#5a5a5a" stroke-width="2" stroke-dasharray="5,5" fill="none" mask="url(#lifeline-mask-ieqv57y-1)" /><polygon fill="#5a5a5a" stroke="#5a5a5a" stroke-width="1" points="589,540 583.5,530 594.5,530" /><path d="M 955 100 L 955 540" stroke="#5a5a5a" stroke-width="2" stroke-dasharray="5,5" fill="none" mask="url(#lifeline-mask-ieqv57y-2)" /><polygon fill="#5a5a5a" stroke="#5a5a5a" stroke-width="1" points="955,540 949.5,530 960.5,530" /><path d="M 1321 100 L 1321 540" stroke="#5a5a5a" stroke-width="2" stroke-dasharray="5,5" fill="none" mask="url(#lifeline-mask-ieqv57y-3)" /><polygon fill="#5a5a5a" stroke="#5a5a5a" stroke-width="1" points="1321,540 1315.5,530 1326.5,530" /><path d="M 313 150 L 499 150" stroke="url(#arrow-gradient-ieqv57y-0)" stroke-width="2" fill="none" mask="url(#edge-mask-ieqv57y-0)" stroke-dasharray="5,5"><animate attributeName="stroke-dashoffset" from="10" to="0" dur="1s" repeatCount="indefinite" /></path><polygon fill="#00C9C9" stroke="#00C9C9" stroke-width="1.6" points="499,150 485,157.7 485,142.3" /><g transform="translate(378.5, 130)"><foreignObject height="20" width="55" y="0" x="0" overflow="visible"><span style="overflow:visible;color:#262626;font-weight:normal;font-size:14px;line-height:1.4;width:100%;height:100%;display:flex;flex-wrap:wrap;word-break:break-word;white-space:pre-wrap;text-align:center;justify-content:center;align-content:center;align-items:center" xmlns="http://www.w3.org/1999/xhtml">Request</span></foreignObject></g><path d="M 679 165 L 865 235" stroke="url(#arrow-gradient-ieqv57y-1)" stroke-width="2" fill="none" mask="url(#edge-mask-ieqv57y-1)" stroke-dasharray="5,5"><animate attributeName="stroke-dashoffset" from="10" to="0" dur="1s" repeatCount="indefinite" /></path><polygon fill="#F0884D" stroke="#F0884D" stroke-width="1.6" points="865,235 849.1850499742044,237.27538033778708 854.6093312748113,222.86229002474576" /><g transform="translate(746.5, 180)"><foreignObject height="20" width="51" y="0" x="0" overflow="visible"><span style="overflow:visible;color:#262626;font-weight:normal;font-size:14px;line-height:1.4;width:100%;height:100%;display:flex;flex-wrap:wrap;word-break:break-word;white-space:pre-wrap;text-align:center;justify-content:center;align-content:center;align-items:center" xmlns="http://www.w3.org/1999/xhtml">API Call</span></foreignObject></g><path d="M 1045 250 L 1231 250" stroke="url(#arrow-gradient-ieqv57y-2)" stroke-width="2" fill="none" mask="url(#edge-mask-ieqv57y-2)" stroke-dasharray="5,5"><animate attributeName="stroke-dashoffset" from="10" to="0" dur="1s" repeatCount="indefinite" /></path><polygon fill="#D580FF" stroke="#D580FF" stroke-width="1.6" points="1231,250 1217,257.7 1217,242.3" /><g transform="translate(1117.5, 230)"><foreignObject height="20" width="41" y="0" x="0" overflow="visible"><span style="overflow:visible;color:#262626;font-weight:normal;font-size:14px;line-height:1.4;width:100%;height:100%;display:flex;flex-wrap:wrap;word-break:break-word;white-space:pre-wrap;text-align:center;justify-content:center;align-content:center;align-items:center" xmlns="http://www.w3.org/1999/xhtml">Query</span></foreignObject></g><path d="M 1231 265 L 1045 335" stroke="url(#arrow-gradient-ieqv57y-3)" stroke-width="2" fill="none" mask="url(#edge-mask-ieqv57y-3)" stroke-dasharray="5,5"><animate attributeName="stroke-dashoffset" from="10" to="0" dur="1s" repeatCount="indefinite" /></path><polygon fill="#F0884D" stroke="#F0884D" stroke-width="1.6" points="1045,335 1055.3906687251886,322.86229002474573 1060.8149500257957,337.2753803377871" /><g transform="translate(1122, 280)"><foreignObject height="20" width="32" y="0" x="0" overflow="visible"><span style="overflow:visible;color:#262626;font-weight:normal;font-size:14px;line-height:1.4;width:100%;height:100%;display:flex;flex-wrap:wrap;word-break:break-word;white-space:pre-wrap;text-align:center;justify-content:center;align-content:center;align-items:center" xmlns="http://www.w3.org/1999/xhtml">Data</span></foreignObject></g><path d="M 865 350 L 679 350" stroke="url(#arrow-gradient-ieqv57y-4)" stroke-width="2" fill="none" mask="url(#edge-mask-ieqv57y-4)" stroke-dasharray="5,5"><animate attributeName="stroke-dashoffset" from="10" to="0" dur="1s" repeatCount="indefinite" /></path><polygon fill="#00C9C9" stroke="#00C9C9" stroke-width="1.6" points="679,350 693,342.3 693,357.7" /><g transform="translate(739, 330)"><foreignObject height="20" width="66" y="0" x="0" overflow="visible"><span style="overflow:visible;color:#262626;font-weight:normal;font-size:14px;line-height:1.4;width:100%;height:100%;display:flex;flex-wrap:wrap;word-break:break-word;white-space:pre-wrap;text-align:center;justify-content:center;align-content:center;align-items:center" xmlns="http://www.w3.org/1999/xhtml">Response</span></foreignObject></g><path d="M 499 365 L 313 450" stroke="url(#arrow-gradient-ieqv57y-5)" stroke-width="2" fill="none" mask="url(#edge-mask-ieqv57y-5)" stroke-dasharray="5,5"><animate attributeName="stroke-dashoffset" from="10" to="0" dur="1s" repeatCount="indefinite" /></path><polygon fill="#1783FF" stroke="#1783FF" stroke-width="1.6" points="313,450 322.53292185413363,437.1776210895567 328.9338424527799,451.18434145835914" /><g transform="translate(373.5, 387.5)"><foreignObject height="20" width="65" y="0" x="0" overflow="visible"><span style="overflow:visible;color:#262626;font-weight:normal;font-size:14px;line-height:1.4;width:100%;height:100%;display:flex;flex-wrap:wrap;word-break:break-word;white-space:pre-wrap;text-align:center;justify-content:center;align-content:center;align-items:center" xmlns="http://www.w3.org/1999/xhtml">Complete</span></foreignObject></g></g><g><g transform="translate(133, 120)"><rect x="0" y="0" width="180" height="60" fill="#ffffff" stroke="#ffffff" stroke-width="1" rx="6" ry="6" filter="url(#compact-shadow)" /><rect x="0" y="0" width="3" height="60" fill="#1783ff" rx="1.5" ry="1.5" /><g transform="translate(36, 8)"><g transform="translate(0, 13.5)"><g><foreignObject height="17" width="136" y="0" x="0" overflow="visible"><span style="overflow:visible;color:#262626;font-weight:bold;font-size:12px;line-height:1.4;width:100%;height:100%;display:flex;flex-wrap:wrap;word-break:break-word;white-space:pre-wrap;text-align:left;justify-content:flex-start;align-content:flex-start;align-items:flex-start" xmlns="http://www.w3.org/1999/xhtml">Send Request</span></foreignObject></g></g></g></g><g transform="translate(133, 420)"><rect x="0" y="0" width="180" height="60" fill="#ffffff" stroke="#ffffff" stroke-width="1" rx="6" ry="6" filter="url(#compact-shadow)" /><rect x="0" y="0" width="3" height="60" fill="#1783ff" rx="1.5" ry="1.5" /><g transform="translate(36, 8)"><g transform="translate(0, 13.5)"><g><foreignObject height="17" width="136" y="0" x="0" overflow="visible"><span style="overflow:visible;color:#262626;font-weight:bold;font-size:12px;line-height:1.4;width:100%;height:100%;display:flex;flex-wrap:wrap;word-break:break-word;white-space:pre-wrap;text-align:left;justify-content:flex-start;align-content:flex-start;align-items:flex-start" xmlns="http://www.w3.org/1999/xhtml">Receive Result</span></foreignObject></g></g></g></g><g transform="translate(499, 120)"><rect x="0" y="0" width="180" height="60" fill="#ffffff" stroke="#ffffff" stroke-width="1" rx="6" ry="6" filter="url(#compact-shadow)" /><rect x="0" y="0" width="3" height="60" fill="#00c9c9" rx="1.5" ry="1.5" /><g transform="translate(36, 8)"><g transform="translate(0, 13.5)"><g><foreignObject height="17" width="136" y="0" x="0" overflow="visible"><span style="overflow:visible;color:#262626;font-weight:bold;font-size:12px;line-height:1.4;width:100%;height:100%;display:flex;flex-wrap:wrap;word-break:break-word;white-space:pre-wrap;text-align:left;justify-content:flex-start;align-content:flex-start;align-items:flex-start" xmlns="http://www.w3.org/1999/xhtml">Receive Request</span></foreignObject></g></g></g></g><g transform="translate(499, 320)"><rect x="0" y="0" width="180" height="60" fill="#ffffff" stroke="#ffffff" stroke-width="1" rx="6" ry="6" filter="url(#compact-shadow)" /><rect x="0" y="0" width="3" height="60" fill="#00c9c9" rx="1.5" ry="1.5" /><g transform="translate(36, 8)"><g transform="translate(0, 13.5)"><g><foreignObject height="17" width="136" y="0" x="0" overflow="visible"><span style="overflow:visible;color:#262626;font-weight:bold;font-size:12px;line-height:1.4;width:100%;height:100%;display:flex;flex-wrap:wrap;word-break:break-word;white-space:pre-wrap;text-align:left;justify-content:flex-start;align-content:flex-start;align-items:flex-start" xmlns="http://www.w3.org/1999/xhtml">Return Response</span></foreignObject></g></g></g></g><g transform="translate(865, 220)"><rect x="0" y="0" width="180" height="60" fill="#ffffff" stroke="#ffffff" stroke-width="1" rx="6" ry="6" filter="url(#compact-shadow)" /><rect x="0" y="0" width="3" height="60" fill="#f0884d" rx="1.5" ry="1.5" /><g transform="translate(36, 8)"><g transform="translate(0, 13.5)"><g><foreignObject height="17" width="136" y="0" x="0" overflow="visible"><span style="overflow:visible;color:#262626;font-weight:bold;font-size:12px;line-height:1.4;width:100%;height:100%;display:flex;flex-wrap:wrap;word-break:break-word;white-space:pre-wrap;text-align:left;justify-content:flex-start;align-content:flex-start;align-items:flex-start" xmlns="http://www.w3.org/1999/xhtml">Process Request</span></foreignObject></g></g></g></g><g transform="translate(865, 320)"><rect x="0" y="0" width="180" height="60" fill="#ffffff" stroke="#ffffff" stroke-width="1" rx="6" ry="6" filter="url(#compact-shadow)" /><rect x="0" y="0" width="3" height="60" fill="#f0884d" rx="1.5" ry="1.5" /><g transform="translate(36, 8)"><g transform="translate(0, 13.5)"><g><foreignObject height="17" width="136" y="0" x="0" overflow="visible"><span style="overflow:visible;color:#262626;font-weight:bold;font-size:12px;line-height:1.4;width:100%;height:100%;display:flex;flex-wrap:wrap;word-break:break-word;white-space:pre-wrap;text-align:left;justify-content:flex-start;align-content:flex-start;align-items:flex-start" xmlns="http://www.w3.org/1999/xhtml">Build Result</span></foreignObject></g></g></g></g><g transform="translate(1231, 220)"><rect x="0" y="0" width="180" height="60" fill="#ffffff" stroke="#ffffff" stroke-width="1" rx="6" ry="6" filter="url(#compact-shadow)" /><rect x="0" y="0" width="3" height="60" fill="#d580ff" rx="1.5" ry="1.5" /><g transform="translate(36, 8)"><g transform="translate(0, 13.5)"><g><foreignObject height="17" width="136" y="0" x="0" overflow="visible"><span style="overflow:visible;color:#262626;font-weight:bold;font-size:12px;line-height:1.4;width:100%;height:100%;display:flex;flex-wrap:wrap;word-break:break-word;white-space:pre-wrap;text-align:left;justify-content:flex-start;align-content:flex-start;align-items:flex-start" xmlns="http://www.w3.org/1999/xhtml">Run Query</span></foreignObject></g></g></g></g></g></g></g></svg>