<?xml version="1.0" encoding="UTF-8"?>
<?xml-stylesheet href="https://assets.antv.antgroup.com/AlibabaPuHuiTi-Regular/result.css" type="text/css"?>
<?xml-stylesheet href="https://assets.antv.antgroup.com/AlibabaPuHuiTi-Bold/result.css" type="text/css"?>
<svg style="" height="771" width="1520" font-family="Alibaba PuHuiTi" xmlns="http://www.w3.org/2000/svg" viewBox="-20 -20 1520 771"><defs /><defs><mask id="lifeline-mask-2eufor8-0" maskUnits="userSpaceOnUse" x="0" y="0" width="1480" height="640"><rect x="0" y="0" width="1480" height="640" fill="white" /><rect x="140" y="118" width="150" height="64" fill="black" /><rect x="140" y="478" width="150" height="64" fill="black" /></mask><mask id="lifeline-mask-2eufor8-1" maskUnits="userSpaceOnUse" x="0" y="0" width="1480" height="640"><rect x="0" y="0" width="1480" height="640" fill="white" /><rect x="490" y="118" width="150" height="64" fill="black" /><rect x="490" y="358" width="150" height="64" fill="black" /></mask><mask id="lifeline-mask-2eufor8-2" maskUnits="userSpaceOnUse" x="0" y="0" width="1480" height="640"><rect x="0" y="0" width="1480" height="640" fill="white" /><rect x="840" y="238" width="150" height="64" fill="black" /><rect x="840" y="358" width="150" height="64" fill="black" /></mask><mask id="lifeline-mask-2eufor8-3" maskUnits="userSpaceOnUse" x="0" y="0" width="1480" height="640"><rect x="0" y="0" width="1480" height="640" fill="white" /><rect x="1190" y="238" width="150" height="64" fill="black" /></mask><mask id="edge-mask-2eufor8-0" maskUnits="userSpaceOnUse" x="0" y="0" width="1480" height="640"><rect x="0" y="0" width="1480" height="640" fill="white" /><rect x="362.5" y="130" width="55" height="20" fill="black" /></mask><linearGradient id="arrow-gradient-2eufor8-0" gradientUnits="userSpaceOnUse" x1="290" y1="150" x2="490" y2="150"><stop offset="0%" stop-color="#1783FF" /><stop offset="100%" stop-color="#00C9C9" /></linearGradient><mask id="edge-mask-2eufor8-1" maskUnits="userSpaceOnUse" x="0" y="0" width="1480" height="640"><rect x="0" y="0" width="1480" height="640" fill="white" /><rect x="714.5" y="190" width="51" height="20" fill="black" /></mask><linearGradient id="arrow-gradient-2eufor8-1" gradientUnits="userSpaceOnUse" x1="640" y1="165" x2="840" y2="255"><stop offset="0%" stop-color="#00C9C9" /><stop offset="100%" stop-color="#F0884D" /></linearGradient><mask id="edge-mask-2eufor8-2" maskUnits="userSpaceOnUse" x="0" y="0" width="1480" height="640"><rect x="0" y="0" width="1480" height="640" fill="white" /><rect x="1069.5" y="250" width="41" height="20" fill="black" /></mask><linearGradient id="arrow-gradient-2eufor8-2" gradientUnits="userSpaceOnUse" x1="990" y1="270" x2="1190" y2="270"><stop offset="0%" stop-color="#F0884D" /><stop offset="100%" stop-color="#D580FF" /></linearGradient><mask id="edge-mask-2eufor8-3" maskUnits="userSpaceOnUse" x="0" y="0" width="1480" height="640"><rect x="0" y="0" width="1480" height="640" fill="white" /><rect x="1074" y="310" width="32" height="20" fill="black" /></mask><linearGradient id="arrow-gradient-2eufor8-3" gradientUnits="userSpaceOnUse" x1="1190" y1="285" x2="990" y2="375"><stop offset="0%" stop-color="#D580FF" /><stop offset="100%" stop-color="#F0884D" /></linearGradient><mask id="edge-mask-2eufor8-4" maskUnits="userSpaceOnUse" x="0" y="0" width="1480" height="640"><rect x="0" y="0" width="1480" height="640" fill="white" /><rect x="707" y="370" width="66" height="20" fill="black" /></mask><linearGradient id="arrow-gradient-2eufor8-4" gradientUnits="userSpaceOnUse" x1="840" y1="390" x2="640" y2="390"><stop offset="0%" stop-color="#F0884D" /><stop offset="100%" stop-color="#00C9C9" /></linearGradient><mask id="edge-mask-2eufor8-5" maskUnits="userSpaceOnUse" x="0" y="0" width="1480" height="640"><rect x="0" y="0" width="1480" height="640" fill="white" /><rect x="357.5" y="437.5" width="65" height="20" fill="black" /></mask><linearGradient id="arrow-gradient-2eufor8-5" gradientUnits="userSpaceOnUse" x1="490" y1="405" x2="290" y2="510"><stop offset="0%" stop-color="#00C9C9" /><stop offset="100%" stop-color="#1783FF" /></linearGradient><filter id="drop-shadow" x="-25%" y="-25%" width="200%" height="200%"><feDropShadow dx="4" dy="4" stdDeviation="4" flood-color="black" flood-opacity="0.8" /></filter></defs><g id="infographic-container"><g transform="translate(537, 0)"><g transform="translate(17.5, 0)"><foreignObject height="35" width="371" y="0" x="0" overflow="visible"><span style="overflow:visible;color:#262626;font-size:24px;line-height:1.4;width:100%;height:100%;display:flex;flex-wrap:wrap;word-break:break-word;white-space:pre-wrap;text-align:center;justify-content:center;align-content:flex-start;align-items:flex-start" xmlns="http://www.w3.org/1999/xhtml">Sequence Interaction Animation</span></foreignObject></g><g transform="translate(0, 43)"><foreignObject height="48" width="406" y="0" x="0" overflow="visible"><span style="overflow:visible;color:#5a5a5a;font-size:16px;line-height:1.4;width:100%;height:100%;display:flex;flex-wrap:wrap;word-break:break-word;white-space:pre-wrap;text-align:center;justify-content:center;align-content:flex-start;align-items:flex-start" xmlns="http://www.w3.org/1999/xhtml">Deterministic AntV and Remotion compatibility proof</span></foreignObject></g></g><g transform="translate(0, 91)"><rect x="0" y="0" width="1480" height="640" fill="none" /><g><g transform="translate(140, 40)"><rect x="0" y="0" width="150" height="60" fill="#1783ff" rx="30" ry="30" /><g transform="translate(12, 16.5)"><foreignObject height="23" width="126" y="0" x="0" overflow="visible"><span style="overflow:visible;color:#ffffff;font-weight:600;font-size:16px;line-height:1.4;width:100%;height:100%;display:flex;flex-wrap:wrap;word-break:break-word;white-space:pre-wrap;text-align:center;justify-content:center;align-content:center;align-items:center" xmlns="http://www.w3.org/1999/xhtml">Customer</span></foreignObject></g></g><g transform="translate(490, 40)"><rect x="0" y="0" width="150" height="60" fill="#00c9c9" rx="30" ry="30" /><g transform="translate(12, 16.5)"><foreignObject height="23" width="126" y="0" x="0" overflow="visible"><span style="overflow:visible;color:#ffffff;font-weight:600;font-size:16px;line-height:1.4;width:100%;height:100%;display:flex;flex-wrap:wrap;word-break:break-word;white-space:pre-wrap;text-align:center;justify-content:center;align-content:center;align-items:center" xmlns="http://www.w3.org/1999/xhtml">Website</span></foreignObject></g></g><g transform="translate(840, 40)"><rect x="0" y="0" width="150" height="60" fill="#f0884d" rx="30" ry="30" /><g transform="translate(12, 16.5)"><foreignObject height="23" width="126" y="0" x="0" overflow="visible"><span style="overflow:visible;color:#ffffff;font-weight:600;font-size:16px;line-height:1.4;width:100%;height:100%;display:flex;flex-wrap:wrap;word-break:break-word;white-space:pre-wrap;text-align:center;justify-content:center;align-content:center;align-items:center" xmlns="http://www.w3.org/1999/xhtml">Server</span></foreignObject></g></g><g transform="translate(1190, 40)"><rect x="0" y="0" width="150" height="60" fill="#d580ff" rx="30" ry="30" /><g transform="translate(12, 16.5)"><foreignObject height="23" width="126" y="0" x="0" overflow="visible"><span style="overflow:visible;color:#ffffff;font-weight:600;font-size:16px;line-height:1.4;width:100%;height:100%;display:flex;flex-wrap:wrap;word-break:break-word;white-space:pre-wrap;text-align:center;justify-content:center;align-content:center;align-items:center" xmlns="http://www.w3.org/1999/xhtml">Database</span></foreignObject></g></g><path d="M 215 100 L 215 600" stroke="#5a5a5a" stroke-width="2" stroke-dasharray="5,5" fill="none" mask="url(#lifeline-mask-2eufor8-0)" /><polygon fill="#5a5a5a" stroke="#5a5a5a" stroke-width="1" points="215,600 209.5,590 220.5,590" /><path d="M 565 100 L 565 600" stroke="#5a5a5a" stroke-width="2" stroke-dasharray="5,5" fill="none" mask="url(#lifeline-mask-2eufor8-1)" /><polygon fill="#5a5a5a" stroke="#5a5a5a" stroke-width="1" points="565,600 559.5,590 570.5,590" /><path d="M 915 100 L 915 600" stroke="#5a5a5a" stroke-width="2" stroke-dasharray="5,5" fill="none" mask="url(#lifeline-mask-2eufor8-2)" /><polygon fill="#5a5a5a" stroke="#5a5a5a" stroke-width="1" points="915,600 909.5,590 920.5,590" /><path d="M 1265 100 L 1265 600" stroke="#5a5a5a" stroke-width="2" stroke-dasharray="5,5" fill="none" mask="url(#lifeline-mask-2eufor8-3)" /><polygon fill="#5a5a5a" stroke="#5a5a5a" stroke-width="1" points="1265,600 1259.5,590 1270.5,590" /><path d="M 290 150 L 490 150" stroke="url(#arrow-gradient-2eufor8-0)" stroke-width="2" fill="none" mask="url(#edge-mask-2eufor8-0)" stroke-dasharray="5,5"><animate attributeName="stroke-dashoffset" from="10" to="0" dur="1s" repeatCount="indefinite" /></path><polygon fill="#00C9C9" stroke="#00C9C9" stroke-width="1.6" points="490,150 476,157.7 476,142.3" /><g transform="translate(362.5, 130)"><foreignObject height="20" width="55" y="0" x="0" overflow="visible"><span style="overflow:visible;color:#262626;font-weight:normal;font-size:14px;line-height:1.4;width:100%;height:100%;display:flex;flex-wrap:wrap;word-break:break-word;white-space:pre-wrap;text-align:center;justify-content:center;align-content:center;align-items:center" xmlns="http://www.w3.org/1999/xhtml">Request</span></foreignObject></g><path d="M 640 165 L 840 255" stroke="url(#arrow-gradient-2eufor8-1)" stroke-width="2" fill="none" mask="url(#edge-mask-2eufor8-1)" stroke-dasharray="5,5"><animate attributeName="stroke-dashoffset" from="10" to="0" dur="1s" repeatCount="indefinite" /></path><polygon fill="#F0884D" stroke="#F0884D" stroke-width="1.6" points="840,255 824.0732909121168,256.27669010724514 830.3929069429803,242.2330989275485" /><g transform="translate(714.5, 190)"><foreignObject height="20" width="51" y="0" x="0" overflow="visible"><span style="overflow:visible;color:#262626;font-weight:normal;font-size:14px;line-height:1.4;width:100%;height:100%;display:flex;flex-wrap:wrap;word-break:break-word;white-space:pre-wrap;text-align:center;justify-content:center;align-content:center;align-items:center" xmlns="http://www.w3.org/1999/xhtml">API Call</span></foreignObject></g><path d="M 990 270 L 1190 270" stroke="url(#arrow-gradient-2eufor8-2)" stroke-width="2" fill="none" mask="url(#edge-mask-2eufor8-2)" stroke-dasharray="5,5"><animate attributeName="stroke-dashoffset" from="10" to="0" dur="1s" repeatCount="indefinite" /></path><polygon fill="#D580FF" stroke="#D580FF" stroke-width="1.6" points="1190,270 1176,277.7 1176,262.3" /><g transform="translate(1069.5, 250)"><foreignObject height="20" width="41" y="0" x="0" overflow="visible"><span style="overflow:visible;color:#262626;font-weight:normal;font-size:14px;line-height:1.4;width:100%;height:100%;display:flex;flex-wrap:wrap;word-break:break-word;white-space:pre-wrap;text-align:center;justify-content:center;align-content:center;align-items:center" xmlns="http://www.w3.org/1999/xhtml">Query</span></foreignObject></g><path d="M 1190 285 L 990 375" stroke="url(#arrow-gradient-2eufor8-3)" stroke-width="2" fill="none" mask="url(#edge-mask-2eufor8-3)" stroke-dasharray="5,5"><animate attributeName="stroke-dashoffset" from="10" to="0" dur="1s" repeatCount="indefinite" /></path><polygon fill="#F0884D" stroke="#F0884D" stroke-width="1.6" points="990,375 999.6070930570197,362.23309892754855 1005.9267090878832,376.27669010724514" /><g transform="translate(1074, 310)"><foreignObject height="20" width="32" y="0" x="0" overflow="visible"><span style="overflow:visible;color:#262626;font-weight:normal;font-size:14px;line-height:1.4;width:100%;height:100%;display:flex;flex-wrap:wrap;word-break:break-word;white-space:pre-wrap;text-align:center;justify-content:center;align-content:center;align-items:center" xmlns="http://www.w3.org/1999/xhtml">Data</span></foreignObject></g><path d="M 840 390 L 640 390" stroke="url(#arrow-gradient-2eufor8-4)" stroke-width="2" fill="none" mask="url(#edge-mask-2eufor8-4)" stroke-dasharray="5,5"><animate attributeName="stroke-dashoffset" from="10" to="0" dur="1s" repeatCount="indefinite" /></path><polygon fill="#00C9C9" stroke="#00C9C9" stroke-width="1.6" points="640,390 654,382.3 654,397.7" /><g transform="translate(707, 370)"><foreignObject height="20" width="66" y="0" x="0" overflow="visible"><span style="overflow:visible;color:#262626;font-weight:normal;font-size:14px;line-height:1.4;width:100%;height:100%;display:flex;flex-wrap:wrap;word-break:break-word;white-space:pre-wrap;text-align:center;justify-content:center;align-content:center;align-items:center" xmlns="http://www.w3.org/1999/xhtml">Response</span></foreignObject></g><path d="M 490 405 L 290 510" stroke="url(#arrow-gradient-2eufor8-5)" stroke-width="2" fill="none" mask="url(#edge-mask-2eufor8-5)" stroke-dasharray="5,5"><animate attributeName="stroke-dashoffset" from="10" to="0" dur="1s" repeatCount="indefinite" /></path><polygon fill="#1783FF" stroke="#1783FF" stroke-width="1.6" points="290,510 298.8163496175088,496.67476156228895 305.9747916619536,510.3098892659933" /><g transform="translate(357.5, 437.5)"><foreignObject height="20" width="65" y="0" x="0" overflow="visible"><span style="overflow:visible;color:#262626;font-weight:normal;font-size:14px;line-height:1.4;width:100%;height:100%;display:flex;flex-wrap:wrap;word-break:break-word;white-space:pre-wrap;text-align:center;justify-content:center;align-content:center;align-items:center" xmlns="http://www.w3.org/1999/xhtml">Complete</span></foreignObject></g></g><g><g transform="translate(140, 120)"><rect x="0" y="0" width="150" height="60" fill="#1783ff" rx="30" ry="30" /><g transform="translate(12, 16.5)"><foreignObject height="23" width="126" y="0" x="0" overflow="visible"><span style="overflow:visible;color:#ffffff;font-weight:600;font-size:16px;line-height:1.4;width:100%;height:100%;display:flex;flex-wrap:wrap;word-break:break-word;white-space:pre-wrap;text-align:center;justify-content:center;align-content:center;align-items:center" xmlns="http://www.w3.org/1999/xhtml">Send Request</span></foreignObject></g></g><g transform="translate(140, 480)"><rect x="0" y="0" width="150" height="60" fill="#1783ff" rx="30" ry="30" /><g transform="translate(12, 16.5)"><foreignObject height="23" width="126" y="0" x="0" overflow="visible"><span style="overflow:visible;color:#ffffff;font-weight:600;font-size:16px;line-height:1.4;width:100%;height:100%;display:flex;flex-wrap:wrap;word-break:break-word;white-space:pre-wrap;text-align:center;justify-content:center;align-content:center;align-items:center" xmlns="http://www.w3.org/1999/xhtml">Receive Result</span></foreignObject></g></g><g transform="translate(490, 120)"><rect x="0" y="0" width="150" height="60" fill="#00c9c9" rx="30" ry="30" /><g transform="translate(12, 16.5)"><foreignObject height="23" width="126" y="0" x="0" overflow="visible"><span style="overflow:visible;color:#ffffff;font-weight:600;font-size:16px;line-height:1.4;width:100%;height:100%;display:flex;flex-wrap:wrap;word-break:break-word;white-space:pre-wrap;text-align:center;justify-content:center;align-content:center;align-items:center" xmlns="http://www.w3.org/1999/xhtml">Receive Request</span></foreignObject></g></g><g transform="translate(490, 360)"><rect x="0" y="0" width="150" height="60" fill="#00c9c9" rx="30" ry="30" /><g transform="translate(12, 16.5)"><foreignObject height="23" width="126" y="0" x="0" overflow="visible"><span style="overflow:visible;color:#ffffff;font-weight:600;font-size:16px;line-height:1.4;width:100%;height:100%;display:flex;flex-wrap:wrap;word-break:break-word;white-space:pre-wrap;text-align:center;justify-content:center;align-content:center;align-items:center" xmlns="http://www.w3.org/1999/xhtml">Return Response</span></foreignObject></g></g><g transform="translate(840, 240)"><rect x="0" y="0" width="150" height="60" fill="#f0884d" rx="30" ry="30" /><g transform="translate(12, 16.5)"><foreignObject height="23" width="126" y="0" x="0" overflow="visible"><span style="overflow:visible;color:#ffffff;font-weight:600;font-size:16px;line-height:1.4;width:100%;height:100%;display:flex;flex-wrap:wrap;word-break:break-word;white-space:pre-wrap;text-align:center;justify-content:center;align-content:center;align-items:center" xmlns="http://www.w3.org/1999/xhtml">Process Request</span></foreignObject></g></g><g transform="translate(840, 360)"><rect x="0" y="0" width="150" height="60" fill="#f0884d" rx="30" ry="30" /><g transform="translate(12, 16.5)"><foreignObject height="23" width="126" y="0" x="0" overflow="visible"><span style="overflow:visible;color:#ffffff;font-weight:600;font-size:16px;line-height:1.4;width:100%;height:100%;display:flex;flex-wrap:wrap;word-break:break-word;white-space:pre-wrap;text-align:center;justify-content:center;align-content:center;align-items:center" xmlns="http://www.w3.org/1999/xhtml">Build Result</span></foreignObject></g></g><g transform="translate(1190, 240)"><rect x="0" y="0" width="150" height="60" fill="#d580ff" rx="30" ry="30" /><g transform="translate(12, 16.5)"><foreignObject height="23" width="126" y="0" x="0" overflow="visible"><span style="overflow:visible;color:#ffffff;font-weight:600;font-size:16px;line-height:1.4;width:100%;height:100%;display:flex;flex-wrap:wrap;word-break:break-word;white-space:pre-wrap;text-align:center;justify-content:center;align-content:center;align-items:center" xmlns="http://www.w3.org/1999/xhtml">Run Query</span></foreignObject></g></g></g></g></g></svg>