<?xml version="1.0" encoding="UTF-8"?>
<?xml-stylesheet href="https://assets.antv.antgroup.com/AlibabaPuHuiTi-Regular/result.css" type="text/css"?>
<?xml-stylesheet href="https://assets.antv.antgroup.com/AlibabaPuHuiTi-Bold/result.css" type="text/css"?>
<svg style="" height="711" width="1520" font-family="Alibaba PuHuiTi" xmlns="http://www.w3.org/2000/svg" viewBox="-20 -20 1520 711"><defs /><defs><mask id="lifeline-mask-njfwctv-0" maskUnits="userSpaceOnUse" x="0" y="0" width="1480" height="580"><rect x="0" y="0" width="1480" height="580" fill="white" /><rect x="145" y="118" width="140" height="64" fill="black" /><rect x="145" y="418" width="140" height="64" fill="black" /></mask><mask id="lifeline-mask-njfwctv-1" maskUnits="userSpaceOnUse" x="0" y="0" width="1480" height="580"><rect x="0" y="0" width="1480" height="580" fill="white" /><rect x="495" y="118" width="140" height="64" fill="black" /><rect x="495" y="318" width="140" height="64" fill="black" /></mask><mask id="lifeline-mask-njfwctv-2" maskUnits="userSpaceOnUse" x="0" y="0" width="1480" height="580"><rect x="0" y="0" width="1480" height="580" fill="white" /><rect x="845" y="218" width="140" height="64" fill="black" /><rect x="845" y="318" width="140" height="64" fill="black" /></mask><mask id="lifeline-mask-njfwctv-3" maskUnits="userSpaceOnUse" x="0" y="0" width="1480" height="580"><rect x="0" y="0" width="1480" height="580" fill="white" /><rect x="1195" y="218" width="140" height="64" fill="black" /></mask><mask id="edge-mask-njfwctv-0" maskUnits="userSpaceOnUse" x="0" y="0" width="1480" height="580"><rect x="0" y="0" width="1480" height="580" fill="white" /><rect x="362.5" y="130" width="55" height="20" fill="black" /></mask><linearGradient id="arrow-gradient-njfwctv-0" gradientUnits="userSpaceOnUse" x1="285" y1="150" x2="495" y2="150"><stop offset="0%" stop-color="#1783FF" /><stop offset="100%" stop-color="#00C9C9" /></linearGradient><mask id="edge-mask-njfwctv-1" maskUnits="userSpaceOnUse" x="0" y="0" width="1480" height="580"><rect x="0" y="0" width="1480" height="580" fill="white" /><rect x="714.5" y="180" width="51" height="20" fill="black" /></mask><linearGradient id="arrow-gradient-njfwctv-1" gradientUnits="userSpaceOnUse" x1="635" y1="165" x2="845" y2="235"><stop offset="0%" stop-color="#00C9C9" /><stop offset="100%" stop-color="#F0884D" /></linearGradient><mask id="edge-mask-njfwctv-2" maskUnits="userSpaceOnUse" x="0" y="0" width="1480" height="580"><rect x="0" y="0" width="1480" height="580" fill="white" /><rect x="1069.5" y="230" width="41" height="20" fill="black" /></mask><linearGradient id="arrow-gradient-njfwctv-2" gradientUnits="userSpaceOnUse" x1="985" y1="250" x2="1195" y2="250"><stop offset="0%" stop-color="#F0884D" /><stop offset="100%" stop-color="#D580FF" /></linearGradient><mask id="edge-mask-njfwctv-3" maskUnits="userSpaceOnUse" x="0" y="0" width="1480" height="580"><rect x="0" y="0" width="1480" height="580" fill="white" /><rect x="1074" y="280" width="32" height="20" fill="black" /></mask><linearGradient id="arrow-gradient-njfwctv-3" gradientUnits="userSpaceOnUse" x1="1195" y1="265" x2="985" y2="335"><stop offset="0%" stop-color="#D580FF" /><stop offset="100%" stop-color="#F0884D" /></linearGradient><mask id="edge-mask-njfwctv-4" maskUnits="userSpaceOnUse" x="0" y="0" width="1480" height="580"><rect x="0" y="0" width="1480" height="580" fill="white" /><rect x="707" y="330" width="66" height="20" fill="black" /></mask><linearGradient id="arrow-gradient-njfwctv-4" gradientUnits="userSpaceOnUse" x1="845" y1="350" x2="635" y2="350"><stop offset="0%" stop-color="#F0884D" /><stop offset="100%" stop-color="#00C9C9" /></linearGradient><mask id="edge-mask-njfwctv-5" maskUnits="userSpaceOnUse" x="0" y="0" width="1480" height="580"><rect x="0" y="0" width="1480" height="580" fill="white" /><rect x="357.5" y="387.5" width="65" height="20" fill="black" /></mask><linearGradient id="arrow-gradient-njfwctv-5" gradientUnits="userSpaceOnUse" x1="495" y1="365" x2="285" y2="450"><stop offset="0%" stop-color="#00C9C9" /><stop offset="100%" stop-color="#1783FF" /></linearGradient></defs><g id="infographic-container"><g transform="translate(537, 0)"><g transform="translate(17.5, 0)"><foreignObject height="35" width="371" y="0" x="0" overflow="visible"><span style="overflow:visible;color:#262626;font-size:24px;line-height:1.4;width:100%;height:100%;display:flex;flex-wrap:wrap;word-break:break-word;white-space:pre-wrap;text-align:center;justify-content:center;align-content:flex-start;align-items:flex-start" xmlns="http://www.w3.org/1999/xhtml">Sequence Interaction Animation</span></foreignObject></g><g transform="translate(0, 43)"><foreignObject height="48" width="406" y="0" x="0" overflow="visible"><span style="overflow:visible;color:#5a5a5a;font-size:16px;line-height:1.4;width:100%;height:100%;display:flex;flex-wrap:wrap;word-break:break-word;white-space:pre-wrap;text-align:center;justify-content:center;align-content:flex-start;align-items:flex-start" xmlns="http://www.w3.org/1999/xhtml">Deterministic AntV and Remotion compatibility proof</span></foreignObject></g></g><g transform="translate(0, 91)"><rect x="0" y="0" width="1480" height="580" fill="none" /><g><g transform="translate(145, 40)"><rect width="140" height="60" rx="30" ry="30" fill="#1783ff1a" stroke="#1783ff" stroke-width="1" opacity="0.8" /><g transform="translate(30, 4)"><foreignObject height="52" width="80" y="0" x="0" overflow="visible"><span style="overflow:visible;color:#262626;font-weight:500;font-size:14px;line-height:1.4;width:100%;height:100%;display:flex;flex-wrap:wrap;word-break:break-word;white-space:pre-wrap;text-align:center;justify-content:center;align-content:center;align-items:center" xmlns="http://www.w3.org/1999/xhtml">Customer</span></foreignObject></g></g><g transform="translate(495, 40)"><rect width="140" height="60" rx="30" ry="30" fill="#00c9c91a" stroke="#00c9c9" stroke-width="1" opacity="0.8" /><g transform="translate(30, 4)"><foreignObject height="52" width="80" y="0" x="0" overflow="visible"><span style="overflow:visible;color:#262626;font-weight:500;font-size:14px;line-height:1.4;width:100%;height:100%;display:flex;flex-wrap:wrap;word-break:break-word;white-space:pre-wrap;text-align:center;justify-content:center;align-content:center;align-items:center" xmlns="http://www.w3.org/1999/xhtml">Website</span></foreignObject></g></g><g transform="translate(845, 40)"><rect width="140" height="60" rx="30" ry="30" fill="#f0884d1a" stroke="#f0884d" stroke-width="1" opacity="0.8" /><g transform="translate(30, 4)"><foreignObject height="52" width="80" y="0" x="0" overflow="visible"><span style="overflow:visible;color:#262626;font-weight:500;font-size:14px;line-height:1.4;width:100%;height:100%;display:flex;flex-wrap:wrap;word-break:break-word;white-space:pre-wrap;text-align:center;justify-content:center;align-content:center;align-items:center" xmlns="http://www.w3.org/1999/xhtml">Server</span></foreignObject></g></g><g transform="translate(1195, 40)"><rect width="140" height="60" rx="30" ry="30" fill="#d580ff1a" stroke="#d580ff" stroke-width="1" opacity="0.8" /><g transform="translate(30, 4)"><foreignObject height="52" width="80" y="0" x="0" overflow="visible"><span style="overflow:visible;color:#262626;font-weight:500;font-size:14px;line-height:1.4;width:100%;height:100%;display:flex;flex-wrap:wrap;word-break:break-word;white-space:pre-wrap;text-align:center;justify-content:center;align-content:center;align-items:center" xmlns="http://www.w3.org/1999/xhtml">Database</span></foreignObject></g></g><path d="M 215 100 L 215 540" stroke="#5a5a5a" stroke-width="2" stroke-dasharray="5,5" fill="none" mask="url(#lifeline-mask-njfwctv-0)" /><polygon fill="#5a5a5a" stroke="#5a5a5a" stroke-width="1" points="215,540 209.5,530 220.5,530" /><path d="M 565 100 L 565 540" stroke="#5a5a5a" stroke-width="2" stroke-dasharray="5,5" fill="none" mask="url(#lifeline-mask-njfwctv-1)" /><polygon fill="#5a5a5a" stroke="#5a5a5a" stroke-width="1" points="565,540 559.5,530 570.5,530" /><path d="M 915 100 L 915 540" stroke="#5a5a5a" stroke-width="2" stroke-dasharray="5,5" fill="none" mask="url(#lifeline-mask-njfwctv-2)" /><polygon fill="#5a5a5a" stroke="#5a5a5a" stroke-width="1" points="915,540 909.5,530 920.5,530" /><path d="M 1265 100 L 1265 540" stroke="#5a5a5a" stroke-width="2" stroke-dasharray="5,5" fill="none" mask="url(#lifeline-mask-njfwctv-3)" /><polygon fill="#5a5a5a" stroke="#5a5a5a" stroke-width="1" points="1265,540 1259.5,530 1270.5,530" /><path d="M 285 150 L 495 150" stroke="url(#arrow-gradient-njfwctv-0)" stroke-width="2" fill="none" mask="url(#edge-mask-njfwctv-0)" stroke-dasharray="5,5"><animate attributeName="stroke-dashoffset" from="10" to="0" dur="1s" repeatCount="indefinite" /></path><polygon fill="#00C9C9" stroke="#00C9C9" stroke-width="1.6" points="495,150 481,157.7 481,142.3" /><g transform="translate(362.5, 130)"><foreignObject height="20" width="55" y="0" x="0" overflow="visible"><span style="overflow:visible;color:#262626;font-weight:normal;font-size:14px;line-height:1.4;width:100%;height:100%;display:flex;flex-wrap:wrap;word-break:break-word;white-space:pre-wrap;text-align:center;justify-content:center;align-content:center;align-items:center" xmlns="http://www.w3.org/1999/xhtml">Request</span></foreignObject></g><path d="M 635 165 L 845 235" stroke="url(#arrow-gradient-njfwctv-1)" stroke-width="2" fill="none" mask="url(#edge-mask-njfwctv-1)" stroke-dasharray="5,5"><animate attributeName="stroke-dashoffset" from="10" to="0" dur="1s" repeatCount="indefinite" /></path><polygon fill="#F0884D" stroke="#F0884D" stroke-width="1.6" points="845,235 829.2834800289631,237.87767267075324 834.1533876256224,223.26794988077532" /><g transform="translate(714.5, 180)"><foreignObject height="20" width="51" y="0" x="0" overflow="visible"><span style="overflow:visible;color:#262626;font-weight:normal;font-size:14px;line-height:1.4;width:100%;height:100%;display:flex;flex-wrap:wrap;word-break:break-word;white-space:pre-wrap;text-align:center;justify-content:center;align-content:center;align-items:center" xmlns="http://www.w3.org/1999/xhtml">API Call</span></foreignObject></g><path d="M 985 250 L 1195 250" stroke="url(#arrow-gradient-njfwctv-2)" stroke-width="2" fill="none" mask="url(#edge-mask-njfwctv-2)" stroke-dasharray="5,5"><animate attributeName="stroke-dashoffset" from="10" to="0" dur="1s" repeatCount="indefinite" /></path><polygon fill="#D580FF" stroke="#D580FF" stroke-width="1.6" points="1195,250 1181,257.7 1181,242.3" /><g transform="translate(1069.5, 230)"><foreignObject height="20" width="41" y="0" x="0" overflow="visible"><span style="overflow:visible;color:#262626;font-weight:normal;font-size:14px;line-height:1.4;width:100%;height:100%;display:flex;flex-wrap:wrap;word-break:break-word;white-space:pre-wrap;text-align:center;justify-content:center;align-content:center;align-items:center" xmlns="http://www.w3.org/1999/xhtml">Query</span></foreignObject></g><path d="M 1195 265 L 985 335" stroke="url(#arrow-gradient-njfwctv-3)" stroke-width="2" fill="none" mask="url(#edge-mask-njfwctv-3)" stroke-dasharray="5,5"><animate attributeName="stroke-dashoffset" from="10" to="0" dur="1s" repeatCount="indefinite" /></path><polygon fill="#F0884D" stroke="#F0884D" stroke-width="1.6" points="985,335 995.8466123743776,323.2679498807753 1000.7165199710369,337.8776726707532" /><g transform="translate(1074, 280)"><foreignObject height="20" width="32" y="0" x="0" overflow="visible"><span style="overflow:visible;color:#262626;font-weight:normal;font-size:14px;line-height:1.4;width:100%;height:100%;display:flex;flex-wrap:wrap;word-break:break-word;white-space:pre-wrap;text-align:center;justify-content:center;align-content:center;align-items:center" xmlns="http://www.w3.org/1999/xhtml">Data</span></foreignObject></g><path d="M 845 350 L 635 350" stroke="url(#arrow-gradient-njfwctv-4)" stroke-width="2" fill="none" mask="url(#edge-mask-njfwctv-4)" stroke-dasharray="5,5"><animate attributeName="stroke-dashoffset" from="10" to="0" dur="1s" repeatCount="indefinite" /></path><polygon fill="#00C9C9" stroke="#00C9C9" stroke-width="1.6" points="635,350 649,342.3 649,357.7" /><g transform="translate(707, 330)"><foreignObject height="20" width="66" y="0" x="0" overflow="visible"><span style="overflow:visible;color:#262626;font-weight:normal;font-size:14px;line-height:1.4;width:100%;height:100%;display:flex;flex-wrap:wrap;word-break:break-word;white-space:pre-wrap;text-align:center;justify-content:center;align-content:center;align-items:center" xmlns="http://www.w3.org/1999/xhtml">Response</span></foreignObject></g><path d="M 495 365 L 285 450" stroke="url(#arrow-gradient-njfwctv-5)" stroke-width="2" fill="none" mask="url(#edge-mask-njfwctv-5)" stroke-dasharray="5,5"><animate attributeName="stroke-dashoffset" from="10" to="0" dur="1s" repeatCount="indefinite" /></path><polygon fill="#1783FF" stroke="#1783FF" stroke-width="1.6" points="285,450 295.08827115057875,437.6098109299171 300.8662396196697,451.8847918535538" /><g transform="translate(357.5, 387.5)"><foreignObject height="20" width="65" y="0" x="0" overflow="visible"><span style="overflow:visible;color:#262626;font-weight:normal;font-size:14px;line-height:1.4;width:100%;height:100%;display:flex;flex-wrap:wrap;word-break:break-word;white-space:pre-wrap;text-align:center;justify-content:center;align-content:center;align-items:center" xmlns="http://www.w3.org/1999/xhtml">Complete</span></foreignObject></g></g><g><g transform="translate(145, 120)"><rect width="140" height="60" rx="30" ry="30" fill="#1783ff1a" stroke="#1783ff" stroke-width="1" opacity="0.8" /><g transform="translate(30, 4)"><foreignObject height="52" width="80" y="0" x="0" overflow="visible"><span style="overflow:visible;color:#262626;font-weight:500;font-size:14px;line-height:1.4;width:100%;height:100%;display:flex;flex-wrap:wrap;word-break:break-word;white-space:pre-wrap;text-align:center;justify-content:center;align-content:center;align-items:center" xmlns="http://www.w3.org/1999/xhtml">Send Request</span></foreignObject></g></g><g transform="translate(145, 420)"><rect width="140" height="60" rx="30" ry="30" fill="#1783ff1a" stroke="#1783ff" stroke-width="1" opacity="0.8" /><g transform="translate(30, 4)"><foreignObject height="52" width="80" y="0" x="0" overflow="visible"><span style="overflow:visible;color:#262626;font-weight:500;font-size:14px;line-height:1.4;width:100%;height:100%;display:flex;flex-wrap:wrap;word-break:break-word;white-space:pre-wrap;text-align:center;justify-content:center;align-content:center;align-items:center" xmlns="http://www.w3.org/1999/xhtml">Receive Result</span></foreignObject></g></g><g transform="translate(495, 120)"><rect width="140" height="60" rx="30" ry="30" fill="#00c9c91a" stroke="#00c9c9" stroke-width="1" opacity="0.8" /><g transform="translate(30, 4)"><foreignObject height="52" width="80" y="0" x="0" overflow="visible"><span style="overflow:visible;color:#262626;font-weight:500;font-size:14px;line-height:1.4;width:100%;height:100%;display:flex;flex-wrap:wrap;word-break:break-word;white-space:pre-wrap;text-align:center;justify-content:center;align-content:center;align-items:center" xmlns="http://www.w3.org/1999/xhtml">Receive Request</span></foreignObject></g></g><g transform="translate(495, 320)"><rect width="140" height="60" rx="30" ry="30" fill="#00c9c91a" stroke="#00c9c9" stroke-width="1" opacity="0.8" /><g transform="translate(30, 4)"><foreignObject height="52" width="80" y="0" x="0" overflow="visible"><span style="overflow:visible;color:#262626;font-weight:500;font-size:14px;line-height:1.4;width:100%;height:100%;display:flex;flex-wrap:wrap;word-break:break-word;white-space:pre-wrap;text-align:center;justify-content:center;align-content:center;align-items:center" xmlns="http://www.w3.org/1999/xhtml">Return Response</span></foreignObject></g></g><g transform="translate(845, 220)"><rect width="140" height="60" rx="30" ry="30" fill="#f0884d1a" stroke="#f0884d" stroke-width="1" opacity="0.8" /><g transform="translate(30, 4)"><foreignObject height="52" width="80" y="0" x="0" overflow="visible"><span style="overflow:visible;color:#262626;font-weight:500;font-size:14px;line-height:1.4;width:100%;height:100%;display:flex;flex-wrap:wrap;word-break:break-word;white-space:pre-wrap;text-align:center;justify-content:center;align-content:center;align-items:center" xmlns="http://www.w3.org/1999/xhtml">Process Request</span></foreignObject></g></g><g transform="translate(845, 320)"><rect width="140" height="60" rx="30" ry="30" fill="#f0884d1a" stroke="#f0884d" stroke-width="1" opacity="0.8" /><g transform="translate(30, 4)"><foreignObject height="52" width="80" y="0" x="0" overflow="visible"><span style="overflow:visible;color:#262626;font-weight:500;font-size:14px;line-height:1.4;width:100%;height:100%;display:flex;flex-wrap:wrap;word-break:break-word;white-space:pre-wrap;text-align:center;justify-content:center;align-content:center;align-items:center" xmlns="http://www.w3.org/1999/xhtml">Build Result</span></foreignObject></g></g><g transform="translate(1195, 220)"><rect width="140" height="60" rx="30" ry="30" fill="#d580ff1a" stroke="#d580ff" stroke-width="1" opacity="0.8" /><g transform="translate(30, 4)"><foreignObject height="52" width="80" y="0" x="0" overflow="visible"><span style="overflow:visible;color:#262626;font-weight:500;font-size:14px;line-height:1.4;width:100%;height:100%;display:flex;flex-wrap:wrap;word-break:break-word;white-space:pre-wrap;text-align:center;justify-content:center;align-content:center;align-items:center" xmlns="http://www.w3.org/1999/xhtml">Run Query</span></foreignObject></g></g></g></g></g></svg>