<?xml version="1.0" encoding="UTF-8"?>
<?xml-stylesheet href="https://assets.antv.antgroup.com/AlibabaPuHuiTi-Regular/result.css" type="text/css"?>
<?xml-stylesheet href="https://assets.antv.antgroup.com/AlibabaPuHuiTi-Bold/result.css" type="text/css"?>
<svg style="" height="651" width="1520" font-family="Alibaba PuHuiTi" xmlns="http://www.w3.org/2000/svg" viewBox="-20 -20 1520 651"><defs /><defs><mask id="lifeline-mask-9jh7jz2-0" maskUnits="userSpaceOnUse" x="0" y="0" width="1480" height="520"><rect x="0" y="0" width="1480" height="520" fill="white" /><rect x="140" y="118" width="150" height="64" fill="black" /><rect x="140" y="358" width="150" height="64" fill="black" /></mask><mask id="lifeline-mask-9jh7jz2-1" maskUnits="userSpaceOnUse" x="0" y="0" width="1480" height="520"><rect x="0" y="0" width="1480" height="520" fill="white" /><rect x="490" y="118" width="150" height="64" fill="black" /><rect x="490" y="278" width="150" height="64" fill="black" /></mask><mask id="lifeline-mask-9jh7jz2-2" maskUnits="userSpaceOnUse" x="0" y="0" width="1480" height="520"><rect x="0" y="0" width="1480" height="520" fill="white" /><rect x="840" y="198" width="150" height="64" fill="black" /><rect x="840" y="278" width="150" height="64" fill="black" /></mask><mask id="lifeline-mask-9jh7jz2-3" maskUnits="userSpaceOnUse" x="0" y="0" width="1480" height="520"><rect x="0" y="0" width="1480" height="520" fill="white" /><rect x="1190" y="198" width="150" height="64" fill="black" /></mask><mask id="edge-mask-9jh7jz2-0" maskUnits="userSpaceOnUse" x="0" y="0" width="1480" height="520"><rect x="0" y="0" width="1480" height="520" fill="white" /><rect x="362.5" y="130" width="55" height="20" fill="black" /></mask><linearGradient id="arrow-gradient-9jh7jz2-0" gradientUnits="userSpaceOnUse" x1="290" y1="150" x2="490" y2="150"><stop offset="0%" stop-color="#1783FF" /><stop offset="100%" stop-color="#00C9C9" /></linearGradient><mask id="edge-mask-9jh7jz2-1" maskUnits="userSpaceOnUse" x="0" y="0" width="1480" height="520"><rect x="0" y="0" width="1480" height="520" fill="white" /><rect x="714.5" y="170" width="51" height="20" fill="black" /></mask><linearGradient id="arrow-gradient-9jh7jz2-1" gradientUnits="userSpaceOnUse" x1="640" y1="165" x2="840" y2="215"><stop offset="0%" stop-color="#00C9C9" /><stop offset="100%" stop-color="#F0884D" /></linearGradient><mask id="edge-mask-9jh7jz2-2" maskUnits="userSpaceOnUse" x="0" y="0" width="1480" height="520"><rect x="0" y="0" width="1480" height="520" fill="white" /><rect x="1069.5" y="210" width="41" height="20" fill="black" /></mask><linearGradient id="arrow-gradient-9jh7jz2-2" gradientUnits="userSpaceOnUse" x1="990" y1="230" x2="1190" y2="230"><stop offset="0%" stop-color="#F0884D" /><stop offset="100%" stop-color="#D580FF" /></linearGradient><mask id="edge-mask-9jh7jz2-3" maskUnits="userSpaceOnUse" x="0" y="0" width="1480" height="520"><rect x="0" y="0" width="1480" height="520" fill="white" /><rect x="1074" y="250" width="32" height="20" fill="black" /></mask><linearGradient id="arrow-gradient-9jh7jz2-3" gradientUnits="userSpaceOnUse" x1="1190" y1="245" x2="990" y2="295"><stop offset="0%" stop-color="#D580FF" /><stop offset="100%" stop-color="#F0884D" /></linearGradient><mask id="edge-mask-9jh7jz2-4" maskUnits="userSpaceOnUse" x="0" y="0" width="1480" height="520"><rect x="0" y="0" width="1480" height="520" fill="white" /><rect x="707" y="290" width="66" height="20" fill="black" /></mask><linearGradient id="arrow-gradient-9jh7jz2-4" gradientUnits="userSpaceOnUse" x1="840" y1="310" x2="640" y2="310"><stop offset="0%" stop-color="#F0884D" /><stop offset="100%" stop-color="#00C9C9" /></linearGradient><mask id="edge-mask-9jh7jz2-5" maskUnits="userSpaceOnUse" x="0" y="0" width="1480" height="520"><rect x="0" y="0" width="1480" height="520" fill="white" /><rect x="357.5" y="337.5" width="65" height="20" fill="black" /></mask><linearGradient id="arrow-gradient-9jh7jz2-5" gradientUnits="userSpaceOnUse" x1="490" y1="325" x2="290" y2="390"><stop offset="0%" stop-color="#00C9C9" /><stop offset="100%" stop-color="#1783FF" /></linearGradient><filter id="drop-shadow" x="-25%" y="-25%" width="200%" height="200%"><feDropShadow dx="4" dy="4" stdDeviation="4" flood-color="black" flood-opacity="0.8" /></filter></defs><g id="infographic-container"><g transform="translate(537, 0)"><g transform="translate(17.5, 0)"><foreignObject height="35" width="371" y="0" x="0" overflow="visible"><span style="overflow:visible;color:#262626;font-size:24px;line-height:1.4;width:100%;height:100%;display:flex;flex-wrap:wrap;word-break:break-word;white-space:pre-wrap;text-align:center;justify-content:center;align-content:flex-start;align-items:flex-start" xmlns="http://www.w3.org/1999/xhtml">Sequence Interaction Animation</span></foreignObject></g><g transform="translate(0, 43)"><foreignObject height="48" width="406" y="0" x="0" overflow="visible"><span style="overflow:visible;color:#5a5a5a;font-size:16px;line-height:1.4;width:100%;height:100%;display:flex;flex-wrap:wrap;word-break:break-word;white-space:pre-wrap;text-align:center;justify-content:center;align-content:flex-start;align-items:flex-start" xmlns="http://www.w3.org/1999/xhtml">Deterministic AntV and Remotion compatibility proof</span></foreignObject></g></g><g transform="translate(0, 91)"><rect x="0" y="0" width="1480" height="520" fill="none" /><g><g transform="translate(140, 40)"><rect x="0" y="0" width="150" height="60" fill="#1783ff" rx="30" ry="30" /><g transform="translate(12, 16.5)"><foreignObject height="23" width="126" y="0" x="0" overflow="visible"><span style="overflow:visible;color:#ffffff;font-weight:600;font-size:16px;line-height:1.4;width:100%;height:100%;display:flex;flex-wrap:wrap;word-break:break-word;white-space:pre-wrap;text-align:center;justify-content:center;align-content:center;align-items:center" xmlns="http://www.w3.org/1999/xhtml">Customer</span></foreignObject></g></g><g transform="translate(490, 40)"><rect x="0" y="0" width="150" height="60" fill="#00c9c9" rx="30" ry="30" /><g transform="translate(12, 16.5)"><foreignObject height="23" width="126" y="0" x="0" overflow="visible"><span style="overflow:visible;color:#ffffff;font-weight:600;font-size:16px;line-height:1.4;width:100%;height:100%;display:flex;flex-wrap:wrap;word-break:break-word;white-space:pre-wrap;text-align:center;justify-content:center;align-content:center;align-items:center" xmlns="http://www.w3.org/1999/xhtml">Website</span></foreignObject></g></g><g transform="translate(840, 40)"><rect x="0" y="0" width="150" height="60" fill="#f0884d" rx="30" ry="30" /><g transform="translate(12, 16.5)"><foreignObject height="23" width="126" y="0" x="0" overflow="visible"><span style="overflow:visible;color:#ffffff;font-weight:600;font-size:16px;line-height:1.4;width:100%;height:100%;display:flex;flex-wrap:wrap;word-break:break-word;white-space:pre-wrap;text-align:center;justify-content:center;align-content:center;align-items:center" xmlns="http://www.w3.org/1999/xhtml">Server</span></foreignObject></g></g><g transform="translate(1190, 40)"><rect x="0" y="0" width="150" height="60" fill="#d580ff" rx="30" ry="30" /><g transform="translate(12, 16.5)"><foreignObject height="23" width="126" y="0" x="0" overflow="visible"><span style="overflow:visible;color:#ffffff;font-weight:600;font-size:16px;line-height:1.4;width:100%;height:100%;display:flex;flex-wrap:wrap;word-break:break-word;white-space:pre-wrap;text-align:center;justify-content:center;align-content:center;align-items:center" xmlns="http://www.w3.org/1999/xhtml">Database</span></foreignObject></g></g><path d="M 215 100 L 215 480" stroke="#5a5a5a" stroke-width="2" stroke-dasharray="5,5" fill="none" mask="url(#lifeline-mask-9jh7jz2-0)" /><polygon fill="#5a5a5a" stroke="#5a5a5a" stroke-width="1" points="215,480 209.5,470 220.5,470" /><path d="M 565 100 L 565 480" stroke="#5a5a5a" stroke-width="2" stroke-dasharray="5,5" fill="none" mask="url(#lifeline-mask-9jh7jz2-1)" /><polygon fill="#5a5a5a" stroke="#5a5a5a" stroke-width="1" points="565,480 559.5,470 570.5,470" /><path d="M 915 100 L 915 480" stroke="#5a5a5a" stroke-width="2" stroke-dasharray="5,5" fill="none" mask="url(#lifeline-mask-9jh7jz2-2)" /><polygon fill="#5a5a5a" stroke="#5a5a5a" stroke-width="1" points="915,480 909.5,470 920.5,470" /><path d="M 1265 100 L 1265 480" stroke="#5a5a5a" stroke-width="2" stroke-dasharray="5,5" fill="none" mask="url(#lifeline-mask-9jh7jz2-3)" /><polygon fill="#5a5a5a" stroke="#5a5a5a" stroke-width="1" points="1265,480 1259.5,470 1270.5,470" /><path d="M 290 150 L 490 150" stroke="url(#arrow-gradient-9jh7jz2-0)" stroke-width="2" fill="none" mask="url(#edge-mask-9jh7jz2-0)" stroke-dasharray="5,5"><animate attributeName="stroke-dashoffset" from="10" to="0" dur="1s" repeatCount="indefinite" /></path><polygon fill="#00C9C9" stroke="#00C9C9" stroke-width="1.6" points="490,150 476,157.7 476,142.3" /><g transform="translate(362.5, 130)"><foreignObject height="20" width="55" y="0" x="0" overflow="visible"><span style="overflow:visible;color:#262626;font-weight:normal;font-size:14px;line-height:1.4;width:100%;height:100%;display:flex;flex-wrap:wrap;word-break:break-word;white-space:pre-wrap;text-align:center;justify-content:center;align-content:center;align-items:center" xmlns="http://www.w3.org/1999/xhtml">Request</span></foreignObject></g><path d="M 640 165 L 840 215" stroke="url(#arrow-gradient-9jh7jz2-1)" stroke-width="2" fill="none" mask="url(#edge-mask-9jh7jz2-1)" stroke-dasharray="5,5"><animate attributeName="stroke-dashoffset" from="10" to="0" dur="1s" repeatCount="indefinite" /></path><polygon fill="#F0884D" stroke="#F0884D" stroke-width="1.6" points="840,215 824.5504806851856,219.0745985006104 828.2855293107451,204.13440399837228" /><g transform="translate(714.5, 170)"><foreignObject height="20" width="51" y="0" x="0" overflow="visible"><span style="overflow:visible;color:#262626;font-weight:normal;font-size:14px;line-height:1.4;width:100%;height:100%;display:flex;flex-wrap:wrap;word-break:break-word;white-space:pre-wrap;text-align:center;justify-content:center;align-content:center;align-items:center" xmlns="http://www.w3.org/1999/xhtml">API Call</span></foreignObject></g><path d="M 990 230 L 1190 230" stroke="url(#arrow-gradient-9jh7jz2-2)" stroke-width="2" fill="none" mask="url(#edge-mask-9jh7jz2-2)" stroke-dasharray="5,5"><animate attributeName="stroke-dashoffset" from="10" to="0" dur="1s" repeatCount="indefinite" /></path><polygon fill="#D580FF" stroke="#D580FF" stroke-width="1.6" points="1190,230 1176,237.7 1176,222.3" /><g transform="translate(1069.5, 210)"><foreignObject height="20" width="41" y="0" x="0" overflow="visible"><span style="overflow:visible;color:#262626;font-weight:normal;font-size:14px;line-height:1.4;width:100%;height:100%;display:flex;flex-wrap:wrap;word-break:break-word;white-space:pre-wrap;text-align:center;justify-content:center;align-content:center;align-items:center" xmlns="http://www.w3.org/1999/xhtml">Query</span></foreignObject></g><path d="M 1190 245 L 990 295" stroke="url(#arrow-gradient-9jh7jz2-3)" stroke-width="2" fill="none" mask="url(#edge-mask-9jh7jz2-3)" stroke-dasharray="5,5"><animate attributeName="stroke-dashoffset" from="10" to="0" dur="1s" repeatCount="indefinite" /></path><polygon fill="#F0884D" stroke="#F0884D" stroke-width="1.6" points="990,295 1001.7144706892549,284.1344039983723 1005.4495193148144,299.0745985006104" /><g transform="translate(1074, 250)"><foreignObject height="20" width="32" y="0" x="0" overflow="visible"><span style="overflow:visible;color:#262626;font-weight:normal;font-size:14px;line-height:1.4;width:100%;height:100%;display:flex;flex-wrap:wrap;word-break:break-word;white-space:pre-wrap;text-align:center;justify-content:center;align-content:center;align-items:center" xmlns="http://www.w3.org/1999/xhtml">Data</span></foreignObject></g><path d="M 840 310 L 640 310" stroke="url(#arrow-gradient-9jh7jz2-4)" stroke-width="2" fill="none" mask="url(#edge-mask-9jh7jz2-4)" stroke-dasharray="5,5"><animate attributeName="stroke-dashoffset" from="10" to="0" dur="1s" repeatCount="indefinite" /></path><polygon fill="#00C9C9" stroke="#00C9C9" stroke-width="1.6" points="640,310 654,302.3 654,317.7" /><g transform="translate(707, 290)"><foreignObject height="20" width="66" y="0" x="0" overflow="visible"><span style="overflow:visible;color:#262626;font-weight:normal;font-size:14px;line-height:1.4;width:100%;height:100%;display:flex;flex-wrap:wrap;word-break:break-word;white-space:pre-wrap;text-align:center;justify-content:center;align-content:center;align-items:center" xmlns="http://www.w3.org/1999/xhtml">Response</span></foreignObject></g><path d="M 490 325 L 290 390" stroke="url(#arrow-gradient-9jh7jz2-5)" stroke-width="2" fill="none" mask="url(#edge-mask-9jh7jz2-5)" stroke-dasharray="5,5"><animate attributeName="stroke-dashoffset" from="10" to="0" dur="1s" repeatCount="indefinite" /></path><polygon fill="#1783FF" stroke="#1783FF" stroke-width="1.6" points="290,390 300.9345142052341,378.3498326580459 305.6944397192325,392.9957573165025" /><g transform="translate(357.5, 337.5)"><foreignObject height="20" width="65" y="0" x="0" overflow="visible"><span style="overflow:visible;color:#262626;font-weight:normal;font-size:14px;line-height:1.4;width:100%;height:100%;display:flex;flex-wrap:wrap;word-break:break-word;white-space:pre-wrap;text-align:center;justify-content:center;align-content:center;align-items:center" xmlns="http://www.w3.org/1999/xhtml">Complete</span></foreignObject></g></g><g><g transform="translate(140, 120)"><rect x="0" y="0" width="150" height="60" fill="#1783ff" rx="30" ry="30" /><g transform="translate(12, 16.5)"><foreignObject height="23" width="126" y="0" x="0" overflow="visible"><span style="overflow:visible;color:#ffffff;font-weight:600;font-size:16px;line-height:1.4;width:100%;height:100%;display:flex;flex-wrap:wrap;word-break:break-word;white-space:pre-wrap;text-align:center;justify-content:center;align-content:center;align-items:center" xmlns="http://www.w3.org/1999/xhtml">Send Request</span></foreignObject></g></g><g transform="translate(140, 360)"><rect x="0" y="0" width="150" height="60" fill="#1783ff" rx="30" ry="30" /><g transform="translate(12, 16.5)"><foreignObject height="23" width="126" y="0" x="0" overflow="visible"><span style="overflow:visible;color:#ffffff;font-weight:600;font-size:16px;line-height:1.4;width:100%;height:100%;display:flex;flex-wrap:wrap;word-break:break-word;white-space:pre-wrap;text-align:center;justify-content:center;align-content:center;align-items:center" xmlns="http://www.w3.org/1999/xhtml">Receive Result</span></foreignObject></g></g><g transform="translate(490, 120)"><rect x="0" y="0" width="150" height="60" fill="#00c9c9" rx="30" ry="30" /><g transform="translate(12, 16.5)"><foreignObject height="23" width="126" y="0" x="0" overflow="visible"><span style="overflow:visible;color:#ffffff;font-weight:600;font-size:16px;line-height:1.4;width:100%;height:100%;display:flex;flex-wrap:wrap;word-break:break-word;white-space:pre-wrap;text-align:center;justify-content:center;align-content:center;align-items:center" xmlns="http://www.w3.org/1999/xhtml">Receive Request</span></foreignObject></g></g><g transform="translate(490, 280)"><rect x="0" y="0" width="150" height="60" fill="#00c9c9" rx="30" ry="30" /><g transform="translate(12, 16.5)"><foreignObject height="23" width="126" y="0" x="0" overflow="visible"><span style="overflow:visible;color:#ffffff;font-weight:600;font-size:16px;line-height:1.4;width:100%;height:100%;display:flex;flex-wrap:wrap;word-break:break-word;white-space:pre-wrap;text-align:center;justify-content:center;align-content:center;align-items:center" xmlns="http://www.w3.org/1999/xhtml">Return Response</span></foreignObject></g></g><g transform="translate(840, 200)"><rect x="0" y="0" width="150" height="60" fill="#f0884d" rx="30" ry="30" /><g transform="translate(12, 16.5)"><foreignObject height="23" width="126" y="0" x="0" overflow="visible"><span style="overflow:visible;color:#ffffff;font-weight:600;font-size:16px;line-height:1.4;width:100%;height:100%;display:flex;flex-wrap:wrap;word-break:break-word;white-space:pre-wrap;text-align:center;justify-content:center;align-content:center;align-items:center" xmlns="http://www.w3.org/1999/xhtml">Process Request</span></foreignObject></g></g><g transform="translate(840, 280)"><rect x="0" y="0" width="150" height="60" fill="#f0884d" rx="30" ry="30" /><g transform="translate(12, 16.5)"><foreignObject height="23" width="126" y="0" x="0" overflow="visible"><span style="overflow:visible;color:#ffffff;font-weight:600;font-size:16px;line-height:1.4;width:100%;height:100%;display:flex;flex-wrap:wrap;word-break:break-word;white-space:pre-wrap;text-align:center;justify-content:center;align-content:center;align-items:center" xmlns="http://www.w3.org/1999/xhtml">Build Result</span></foreignObject></g></g><g transform="translate(1190, 200)"><rect x="0" y="0" width="150" height="60" fill="#d580ff" rx="30" ry="30" /><g transform="translate(12, 16.5)"><foreignObject height="23" width="126" y="0" x="0" overflow="visible"><span style="overflow:visible;color:#ffffff;font-weight:600;font-size:16px;line-height:1.4;width:100%;height:100%;display:flex;flex-wrap:wrap;word-break:break-word;white-space:pre-wrap;text-align:center;justify-content:center;align-content:center;align-items:center" xmlns="http://www.w3.org/1999/xhtml">Run Query</span></foreignObject></g></g></g></g></g></svg>